<svg version="1.1" xmlns="http://www.w3.org/2000/svg" xmlns:xlink="http://www.w3.org/1999/xlink" ><symbol id="svg-link" viewBox="0 0 24 24" ><path d="M0 0h24v24H0V0z" fill="none" /><path d="M17 7h-4v2h4c1.65 0 3 1.35 3 3s-1.35 3-3 3h-4v2h4c2.76 0 5-2.24 5-5s-2.24-5-5-5zm-6 8H7c-1.65 0-3-1.35-3-3s1.35-3 3-3h4V7H7c-2.76 0-5 2.24-5 5s2.24 5 5 5h4v-2zm-3-4h8v2H8z" /></symbol><view id="svg-link-view" viewBox="0 0 24 24" /><use xlink:href="#svg-link" x="0" y="0" width="24" height="24" /><symbol id="svg-clock" viewBox="0 0 13.71 13.71" ><path d="M12.79,3.42a6.62,6.62,0,0,1,.92,3.44,6.64,6.64,0,0,1-.92,3.44,6.76,6.76,0,0,1-2.49,2.49,6.64,6.64,0,0,1-3.44.92,6.62,6.62,0,0,1-3.44-.92A6.82,6.82,0,0,1,0,6.86,6.71,6.71,0,0,1,.92,3.42,6.67,6.67,0,0,1,3.42.92,6.71,6.71,0,0,1,6.86,0a6.82,6.82,0,0,1,5.93,3.42ZM11.06,9.29a4.66,4.66,0,0,0,.65-2.43,4.69,4.69,0,0,0-.65-2.44A4.85,4.85,0,0,0,9.29,2.65a4.89,4.89,0,0,0-4.87,0A5,5,0,0,0,2.65,4.42a4.89,4.89,0,0,0,0,4.87,4.85,4.85,0,0,0,1.77,1.77,4.69,4.69,0,0,0,2.44.65,4.66,4.66,0,0,0,2.43-.65A4.7,4.7,0,0,0,11.06,9.29ZM8,3.71v4A.27.27,0,0,1,7.71,8H4.86a.3.3,0,0,1-.21-.08.29.29,0,0,1-.08-.21V7.14a.28.28,0,0,1,.08-.2.26.26,0,0,1,.21-.08h2V3.71a.24.24,0,0,1,.08-.2.28.28,0,0,1,.2-.08h.57a.29.29,0,0,1,.21.08A.28.28,0,0,1,8,3.71Z" /></symbol><view id="svg-clock-view" viewBox="24 24 13.71 13.71" /><use xlink:href="#svg-clock" x="24" y="24" width="13.71" height="13.71" /><symbol id="svg-view-list" viewBox="0 0 24 24" ><path d="M7,2H3A1,1,0,0,0,2,3V7A1,1,0,0,0,3,8H7A1,1,0,0,0,8,7V3A1,1,0,0,0,7,2ZM6,6H4V4H6ZM7,9H3a1,1,0,0,0-1,1v4a1,1,0,0,0,1,1H7a1,1,0,0,0,1-1V10A1,1,0,0,0,7,9ZM6,13H4V11H6Zm1,3H3a1,1,0,0,0-1,1v4a1,1,0,0,0,1,1H7a1,1,0,0,0,1-1V17A1,1,0,0,0,7,16ZM6,20H4V18H6ZM21,2H10A1,1,0,0,0,9,3V7a1,1,0,0,0,1,1H21a1,1,0,0,0,1-1V3A1,1,0,0,0,21,2ZM20,6H11V4h9Zm1,3H10a1,1,0,0,0-1,1v4a1,1,0,0,0,1,1H21a1,1,0,0,0,1-1V10A1,1,0,0,0,21,9Zm-1,4H11V11h9Zm1,3H10a1,1,0,0,0-1,1v4a1,1,0,0,0,1,1H21a1,1,0,0,0,1-1V17A1,1,0,0,0,21,16Zm-1,4H11V18h9Z" /></symbol><view id="svg-view-list-view" viewBox="38 38 24 24" /><use xlink:href="#svg-view-list" x="38" y="38" width="24" height="24" /><symbol id="svg-lk-account" viewBox="0 0 48 48" ><path d="M41.22,5H6.74A6.06,6.06,0,0,0,.91,11.22V36.79a6.06,6.06,0,0,0,5.83,6.26H41.22a6.07,6.07,0,0,0,5.83-6.26V11.22A6.07,6.07,0,0,0,41.22,5ZM6.74,9H41.22a2.08,2.08,0,0,1,1.83,2.26V15H4.91V11.22A2.08,2.08,0,0,1,6.74,9ZM41.22,39.05H6.74a2.09,2.09,0,0,1-1.83-2.26V19H43.05V36.79A2.09,2.09,0,0,1,41.22,39.05ZM14,27H9V23h5Zm7,0H16V23h5Zm7,0H23V23h5Zm7,0H30V23h5Z" /></symbol><view id="svg-lk-account-view" viewBox="62 62 48 48" /><use xlink:href="#svg-lk-account" x="62" y="62" width="48" height="48" /><symbol id="svg-arrow-down" viewBox="0 0 24 24" ><path d="M12.76,19.49l5.14-6a1,1,0,0,0-1.52-1.3L13,16.13V5.71a1,1,0,0,0-2,0V16.13L7.62,12.19a1,1,0,0,0-1.52,1.3l5.14,6a1,1,0,0,0,1.52,0Z" /></symbol><view id="svg-arrow-down-view" viewBox="110 110 24 24" /><use xlink:href="#svg-arrow-down" x="110" y="110" width="24" height="24" /><symbol id="svg-comment" viewBox="0 0 24 24" ><path d="M3,23a.84.84,0,0,1-.38-.08A1,1,0,0,1,2,22V6A3,3,0,0,1,5,3H19a3,3,0,0,1,3,3V16a3,3,0,0,1-3,3H7.41l-3.7,3.71A1,1,0,0,1,3,23ZM5,5A1,1,0,0,0,4,6V19.59l2.29-2.3A1,1,0,0,1,7,17H19a1,1,0,0,0,1-1V6a1,1,0,0,0-1-1Z" /></symbol><view id="svg-comment-view" viewBox="134 134 24 24" /><use xlink:href="#svg-comment" x="134" y="134" width="24" height="24" /><symbol id="svg-points" viewBox="0 0 18 18" ><rect y="7" width="4" height="4" shape-rendering="crispedges" /><rect x="7" y="7" width="4" height="4" shape-rendering="crispedges" /><rect x="14" y="7" width="4" height="4" shape-rendering="crispedges" /></symbol><view id="svg-points-view" viewBox="158 158 18 18" /><use xlink:href="#svg-points" x="158" y="158" width="18" height="18" /><symbol id="svg-small-pin" viewBox="0 0 12 12" ><path d="M9,4.36a2.77,2.77,0,0,1-.21,1.16l-2.37,5a.82.82,0,0,1-.31.33.81.81,0,0,1-.88,0,.68.68,0,0,1-.3-.33l-2.38-5a2.77,2.77,0,0,1-.21-1.16A3.22,3.22,0,0,1,3.31,2,3.23,3.23,0,0,1,5.67,1,3.19,3.19,0,0,1,8,2,3.22,3.22,0,0,1,9,4.36ZM6.85,5.53a1.6,1.6,0,0,0,.49-1.17,1.64,1.64,0,0,0-.49-1.18,1.67,1.67,0,0,0-2.36,0A1.64,1.64,0,0,0,4,4.36,1.67,1.67,0,0,0,5.67,6,1.6,1.6,0,0,0,6.85,5.53Z" /></symbol><view id="svg-small-pin-view" viewBox="176 176 12 12" /><use xlink:href="#svg-small-pin" x="176" y="176" width="12" height="12" /><symbol id="svg-delivery" viewBox="0 0 26 26" ><path d="M17.3105469,5.4951172V5.2109375c0-0.4140625-0.3359375-0.75-0.75-0.75H1.7490234 c-0.4140625,0-0.75,0.3359375-0.75,0.75v13.578125c0,0.4140625,0.3359375,0.75,0.75,0.75h3.0946045 c0.3288574,1.1506348,1.3780518,2,2.6329346,2s2.3040771-0.8493652,2.6329346-2h6.4510498h1.2567139 c0.3288574,1.1506348,1.3780518,2,2.6329346,2s2.3040771-0.8493652,2.6329346-2h0.9940186 c0.0308228,0,0.0570679-0.0139771,0.0869141-0.0175781c0.0298462,0.0036011,0.0560913,0.0175781,0.0869141,0.0175781 c0.4140625,0,0.75-0.3359375,0.75-0.75v-5.7397461C25.0009766,9.0928345,21.6141357,5.8380127,17.3105469,5.4951172z M23.4721069,12.5493164h-2.8168335c-0.71875-0.1967773-0.8642578-1.4838867-0.8642578-3.4882813V7.6651001 C21.835083,8.6127319,23.2741699,10.4281616,23.4721069,12.5493164z M18.7910156,7.2894287v1.7716064 c0,2.1738281,0.1298828,4.1518555,1.7041016,4.4780273c0.0332031,0.0068359,0.0673828,0.0102539,0.1015625,0.0102539h2.9042969 v4.4897461h-0.4178467c-0.3288574-1.1506348-1.3780518-2-2.6329346-2s-2.3040771,0.8493652-2.6329346,2h-1.2567139h-6.4510498 C9.99823,17.6497803,9.8059692,17.2982788,9.5479736,17h7.0125732c0.201355,0,0.3722534-0.1203003,0.4515381-0.291626 c0.177063-0.1372681,0.2984619-0.3421631,0.2984619-0.583374V6.9979858 C17.8234863,7.0465698,18.3175659,7.1478882,18.7910156,7.2894287z M15.8105469,16H2.4990234V5.9609375h13.3115234V16z M2.4990234,17h2.9061279c-0.2579956,0.2982788-0.4502563,0.6497803-0.5615234,1.0390625H2.4990234V17z M7.4765625,20.0390625 c-0.6894531,0-1.25-0.5605469-1.25-1.25s0.5605469-1.25,1.25-1.25c0.6885986,0,1.2481689,0.5593262,1.2495117,1.2475586 c0,0.0008545-0.0004883,0.0015869-0.0004883,0.0024414s0.0004883,0.0015869,0.0004883,0.0024414 C8.7247314,19.4797363,8.1651611,20.0390625,7.4765625,20.0390625z M20.4501953,20.0390625c-0.6894531,0-1.25-0.5605469-1.25-1.25 s0.5605469-1.25,1.25-1.25s1.25,0.5605469,1.25,1.25S21.1396484,20.0390625,20.4501953,20.0390625z" /></symbol><view id="svg-delivery-view" viewBox="188 188 26 26" /><use xlink:href="#svg-delivery" x="188" y="188" width="26" height="26" /><symbol id="svg-magnifier" viewBox="0 0 16 16" ><path d="M15.71,14.29l-3.11-3.1a7,7,0,1,0-1.41,1.41l3.1,3.11a1,1,0,0,0,1.42,0A1,1,0,0,0,15.71,14.29ZM7,12a5,5,0,1,1,5-5A5,5,0,0,1,7,12Zm3-5A1,1,0,0,1,9,8H8V9A1,1,0,0,1,6,9V8H5A1,1,0,0,1,5,6H6V5A1,1,0,0,1,8,5V6H9A1,1,0,0,1,10,7Z" /></symbol><view id="svg-magnifier-view" viewBox="214 214 16 16" /><use xlink:href="#svg-magnifier" x="214" y="214" width="16" height="16" /><symbol id="svg-user" viewBox="0 0 24 24" ><path d="M16,14H8a5,5,0,0,0-5,5v2a1,1,0,0,0,2,0V19a3,3,0,0,1,3-3h8a3,3,0,0,1,3,3v2a1,1,0,0,0,2,0V19A5,5,0,0,0,16,14Z" /><path d="M12,12A5,5,0,1,0,7,7,5,5,0,0,0,12,12Zm0-8A3,3,0,1,1,9,7,3,3,0,0,1,12,4Z" /></symbol><view id="svg-user-view" viewBox="230 230 24 24" /><use xlink:href="#svg-user" x="230" y="230" width="24" height="24" /><symbol id="svg-check" viewBox="0 0 512 512" ><path d="M173.898 439.404l-166.4-166.4c-9.997-9.997-9.997-26.206 0-36.204l36.203-36.204c9.997-9.998 26.207-9.998 36.204 0L192 312.69 432.095 72.596c9.997-9.997 26.207-9.997 36.204 0l36.203 36.204c9.997 9.997 9.997 26.206 0 36.204l-294.4 294.401c-9.998 9.997-26.207 9.997-36.204-.001z" /></symbol><view id="svg-check-view" viewBox="254 254 512 512" /><use xlink:href="#svg-check" x="254" y="254" width="512" height="512" /><symbol id="svg-lk-contacts" viewBox="0 0 48 48" ><path d="M36,46a2,2,0,0,1-2-2V39.62A6.48,6.48,0,0,0,27.76,33H11.24A6.48,6.48,0,0,0,5,39.62V44a2,2,0,0,1-4,0V39.62A10.47,10.47,0,0,1,11.24,29H27.76A10.47,10.47,0,0,1,38,39.62V44A2,2,0,0,1,36,46Zm-5.93-33A10.63,10.63,0,0,0,19.73,2.09,10.63,10.63,0,0,0,9.36,12.94,10.63,10.63,0,0,0,19.73,23.79,10.63,10.63,0,0,0,30.09,12.94Zm-4,0a6.62,6.62,0,0,1-6.36,6.85,6.63,6.63,0,0,1-6.37-6.85,6.63,6.63,0,0,1,6.37-6.85A6.62,6.62,0,0,1,26.09,12.94ZM47,43.91V39.48A10.78,10.78,0,0,0,39.25,29a2,2,0,0,0-1,3.86A6.77,6.77,0,0,1,43,39.48v4.43a2,2,0,0,0,4,0ZM30.89,23.45a10.61,10.61,0,0,0,7.45-7.83A10.93,10.93,0,0,0,30.89,2.45a2,2,0,1,0-1.05,3.86,6.9,6.9,0,0,1,4.61,8.36,6.61,6.61,0,0,1-4.61,4.92,2,2,0,0,0,.52,3.93A1.93,1.93,0,0,0,30.89,23.45Z" /></symbol><view id="svg-lk-contacts-view" viewBox="766 766 48 48" /><use xlink:href="#svg-lk-contacts" x="766" y="766" width="48" height="48" /><symbol id="svg-times-solid" viewBox="0 0 352 512" ><path fill="currentColor" d="M242.72 256l100.07-100.07c12.28-12.28 12.28-32.19 0-44.48l-22.24-22.24c-12.28-12.28-32.19-12.28-44.48 0L176 189.28 75.93 89.21c-12.28-12.28-32.19-12.28-44.48 0L9.21 111.45c-12.28 12.28-12.28 32.19 0 44.48L109.28 256 9.21 356.07c-12.28 12.28-12.28 32.19 0 44.48l22.24 22.24c12.28 12.28 32.2 12.28 44.48 0L176 322.72l100.07 100.07c12.28 12.28 32.2 12.28 44.48 0l22.24-22.24c12.28-12.28 12.28-32.19 0-44.48L242.72 256z" /></symbol><view id="svg-times-solid-view" viewBox="814 814 352 512" /><use xlink:href="#svg-times-solid" x="814" y="814" width="352" height="512" /><symbol id="svg-cart" viewBox="0 0 20 21" ><path d="M6.71,20.884a2.647,2.647,0,1,1,2.632-2.647A2.643,2.643,0,0,1,6.71,20.884Zm0-3.261a0.614,0.614,0,1,0,.635.613A0.625,0.625,0,0,0,6.71,17.623Zm9.8,3.261a2.647,2.647,0,1,1,2.631-2.647A2.643,2.643,0,0,1,16.51,20.884Zm0-3.261a0.614,0.614,0,1,0,.635.613A0.625,0.625,0,0,0,16.51,17.623Zm-0.524-2.445H7.322a2.675,2.675,0,0,1-2.623-2.3L3.458,3.489a0.629,0.629,0,0,0-.629-0.538H0.993a1.017,1.017,0,0,1,0-2.034H2.83a2.647,2.647,0,0,1,2.607,2.3L5.671,4.993H18.96a0.992,0.992,0,0,1,.773.373,1.035,1.035,0,0,1,.2.847l-1.372,6.838A2.634,2.634,0,0,1,15.987,15.178Zm-0.032-2.034a0.623,0.623,0,0,0,.655-0.5l1.127-5.62H5.94l0.738,5.58a0.629,0.629,0,0,0,.63.538h8.646Z" /></symbol><view id="svg-cart-view" viewBox="1166 1326 20 21" /><use xlink:href="#svg-cart" x="1166" y="1326" width="20" height="21" /><symbol id="svg-heart" viewBox="0 0 16 16" ><path d="M8.151,15.193A0.755,0.755,0,0,1,7.6,14.955L1.726,8.748a4.847,4.847,0,0,1,0-6.585A4.287,4.287,0,0,1,4.86.793h0a4.285,4.285,0,0,1,3.133,1.37L8.151,2.33,8.31,2.163A4.287,4.287,0,0,1,11.444.793h0a4.286,4.286,0,0,1,3.133,1.37h0a4.849,4.849,0,0,1,0,6.585L8.7,14.955A0.755,0.755,0,0,1,8.151,15.193ZM4.86,2.393a2.794,2.794,0,0,0-2.04.893,3.193,3.193,0,0,0,0,4.339l5.332,5.629,5.332-5.629a3.194,3.194,0,0,0,0-4.337l0.547-.562-0.548.56a2.794,2.794,0,0,0-2.04-.894h0A2.79,2.79,0,0,0,9.4,3.286L8.7,4.031a0.768,0.768,0,0,1-1.094,0L6.9,3.287a2.79,2.79,0,0,0-2.04-.894h0Z" /></symbol><view id="svg-heart-view" viewBox="1186 1347 16 16" /><use xlink:href="#svg-heart" x="1186" y="1347" width="16" height="16" /><symbol id="svg-nav-arrow-right" viewBox="0 0 24 24" ><line x1="4" x2="20" y1="12" y2="12" /><polyline points="14 6 20 12 14 18" /></symbol><view id="svg-nav-arrow-right-view" viewBox="1202 1363 24 24" /><use xlink:href="#svg-nav-arrow-right" x="1202" y="1363" width="24" height="24" /><symbol id="svg-edit-2" viewBox="0 0 24 24" ><path fill-rule="evenodd" clip-rule="evenodd" d="M4.3,19.7C4.1,19.5,4,19.2,4,18.9l0.4-4.2c0-0.5,0.2-0.9,0.6-1.2l9-9c0.7-0.7,2-0.7,2.7,0.1l2.7,2.7	c0.8,0.8,0.8,2,0.1,2.7l-9,9c-0.3,0.3-0.8,0.5-1.2,0.6L5.1,20c0,0-0.1,0-0.1,0C4.7,20,4.5,19.9,4.3,19.7z M16,10.7L13.3,8L15.3,6	L18,8.7L16,10.7z M9.1,17.6l-3,0.3l0.3-3L12,9.3l2.7,2.7L9.1,17.6z" /></symbol><view id="svg-edit-2-view" viewBox="1226 1387 24 24" /><use xlink:href="#svg-edit-2" x="1226" y="1387" width="24" height="24" /><symbol id="svg-rss" viewBox="0 0 24 24" ><path d="M6.5,15C7.9,15,9,16.1,9,17.5S7.9,20,6.5,20S4,18.9,4,17.5S5.1,15,6.5,15z M15,19c0-5.5-4.5-10-10-10c-0.6,0-1,0.4-1,1	s0.4,1,1,1c4.4,0,8,3.6,8,8c0,0.6,0.4,1,1,1S15,19.6,15,19z M21,19c0-8.8-7.2-16-16-16C4.4,3,4,3.4,4,4s0.4,1,1,1	c7.7,0,14,6.3,14,14c0,0.6,0.4,1,1,1S21,19.6,21,19z" /></symbol><view id="svg-rss-view" viewBox="1250 1411 24 24" /><use xlink:href="#svg-rss" x="1250" y="1411" width="24" height="24" /><symbol id="svg-print" viewBox="0 0 24 24" ><path d="M19,9h-1V4c0-0.6-0.4-1-1-1H7C6.4,3,6,3.4,6,4v5H5c-1.7,0-3,1.3-3,3v5c0,1.7,1.3,3,3,3h1v2c0,0.6,0.4,1,1,1h10	c0.6,0,1-0.4,1-1v-2h1c1.7,0,3-1.3,3-3v-5C22,10.3,20.7,9,19,9z M8,5h8v4H8V5z M16,21H8v-5h8V21z M20,17c0,0.6-0.4,1-1,1h-1v-3	c0-0.6-0.4-1-1-1H7c-0.6,0-1,0.4-1,1v3H5c-0.6,0-1-0.4-1-1v-5c0-0.6,0.4-1,1-1h14c0.6,0,1,0.4,1,1V17z" /></symbol><view id="svg-print-view" viewBox="1274 1435 24 24" /><use xlink:href="#svg-print" x="1274" y="1435" width="24" height="24" /><symbol id="svg-order-cart" viewBox="0 0 20 19.64" ><path d="M6.73,19.64A2.61,2.61,0,1,1,9.36,17,2.62,2.62,0,0,1,6.73,19.64Zm0-3.21a.61.61,0,1,0,0,1.21.61.61,0,1,0,0-1.21Zm9.82,3.21A2.61,2.61,0,1,1,19.18,17,2.62,2.62,0,0,1,16.55,19.64Zm0-3.21a.61.61,0,1,0,.63.6A.62.62,0,0,0,16.55,16.43ZM16,14H7.34a2.68,2.68,0,0,1-2.63-2.27L3.47,2.53A.63.63,0,0,0,2.84,2H1A1,1,0,0,1,1,0H2.84A2.62,2.62,0,0,1,5.45,2.26L5.69,4H19a1,1,0,0,1,.77.37,1,1,0,0,1,.21.83l-1.37,6.72A2.64,2.64,0,0,1,16,14Zm0-2a.63.63,0,0,0,.66-.49L17.77,6H6L6.7,11.5a.63.63,0,0,0,.63.53H16Z" /></symbol><view id="svg-order-cart-view" viewBox="1298 1459 20 19.64" /><use xlink:href="#svg-order-cart" x="1298" y="1459" width="20" height="19.64" /><symbol id="svg-nav-arrow-left" viewBox="0 0 24 24" ><line x1="20" x2="4" y1="12" y2="12" /><polyline points="10 18 4 12 10 6" /></symbol><view id="svg-nav-arrow-left-view" viewBox="1318 1479 24 24" /><use xlink:href="#svg-nav-arrow-left" x="1318" y="1479" width="24" height="24" /><symbol id="svg-download" viewBox="0 0 24 24" ><path d="M19,22H5a3,3,0,0,1-3-3V16a1,1,0,0,1,2,0v3a1,1,0,0,0,1,1H19a1,1,0,0,0,1-1V16a1,1,0,0,1,2,0v3A3,3,0,0,1,19,22ZM16.71,10.29a1,1,0,0,0-1.42,0L13,12.59V3a1,1,0,0,0-2,0v9.59l-2.29-2.3a1,1,0,1,0-1.42,1.42l4,4a1,1,0,0,0,.33.21.94.94,0,0,0,.76,0,1,1,0,0,0,.33-.21l4-4A1,1,0,0,0,16.71,10.29Z" /></symbol><view id="svg-download-view" viewBox="1342 1503 24 24" /><use xlink:href="#svg-download" x="1342" y="1503" width="24" height="24" /><symbol id="svg-bolt" viewBox="0 0 320 512" ><path d="M295.973 160H180.572L215.19 30.184C219.25 14.956 207.756 0 192 0H56C43.971 0 33.8 8.905 32.211 20.828l-31.996 240C-1.704 275.217 9.504 288 24.004 288h118.701L96.646 482.466C93.05 497.649 104.659 512 119.992 512c8.35 0 16.376-4.374 20.778-11.978l175.973-303.997c9.244-15.967-2.288-36.025-20.77-36.025z" /></symbol><view id="svg-bolt-view" viewBox="1366 1527 320 512" /><use xlink:href="#svg-bolt" x="1366" y="1527" width="320" height="512" /><symbol id="svg-facebook" viewBox="0 0 10 21" ><path file-rule="evenodd" d="M7.441,4.059a1.1,1.1,0,0,0-.479.107,1.188,1.188,0,0,0-.381.283,1.271,1.271,0,0,0-.244.42,1.462,1.462,0,0,0-.088.5V6.539H9.941L9.336,10.25H6.25v10H2.5v-10H0V6.539H2.5V4.625a7.461,7.461,0,0,1,.205-1.572A3.289,3.289,0,0,1,3.379,1.7,3.6,3.6,0,0,1,4.736.7,6.143,6.143,0,0,1,6.973.25H10V4.059H7.441Z" /></symbol><view id="svg-facebook-view" viewBox="1686 2039 10 21" /><use xlink:href="#svg-facebook" x="1686" y="2039" width="10" height="21" /><symbol id="svg-order-card" viewBox="0 0 20 16" ><path d="M17,0H3A3,3,0,0,0,0,3V13a3,3,0,0,0,3,3H17a3,3,0,0,0,3-3V3A3,3,0,0,0,17,0ZM3,2H17a1,1,0,0,1,1,1V5H2V3A1,1,0,0,1,3,2ZM17,14H3a1,1,0,0,1-1-1V7H18v6A1,1,0,0,1,17,14Z" /></symbol><view id="svg-order-card-view" viewBox="1696 2060 20 16" /><use xlink:href="#svg-order-card" x="1696" y="2060" width="20" height="16" /><symbol id="svg-question" viewBox="0 0 92 92" ><path id="XMLID_1489_" d="M60.9,25.5c3.2,3.6,4.7,8.5,4,13.7c-1.2,9.6-8.2,13-14.4,13c-0.3,0-0.5,0-0.5,0v2.4c0,2.2-1.8,4-4,4	s-4-1.8-4-4v-3.2c0-3.3,1.4-7.2,8.5-7.2c3.9,0,5.9-2,6.4-6c0.2-1.3,0.3-4.8-2.1-7.4c-1.9-2.1-5-3.2-9.2-3.2c-9,0-9.3,5.9-9.3,6.5	c0,2.2-1.8,4-4,4s-4-1.8-4-4c0-4,3.1-14.5,17.3-14.5C53.9,19.6,58.5,22.8,60.9,25.5z M45.7,62c-1.3,0-2.6,0.5-3.5,1.5	c-0.9,0.9-1.5,2.2-1.5,3.5c0,1.3,0.5,2.6,1.5,3.5c0.9,0.9,2.2,1.5,3.5,1.5c1.3,0,2.6-0.5,3.5-1.5c0.9-0.9,1.5-2.2,1.5-3.5	c0-1.3-0.5-2.6-1.5-3.5C48.3,62.6,47.1,62,45.7,62z M92,46c0,25.4-20.6,46-46,46S0,71.4,0,46S20.6,0,46,0S92,20.6,92,46z M84,46	C84,25,67,8,46,8S8,25,8,46s17,38,38,38S84,67,84,46z" /></symbol><view id="svg-question-view" viewBox="1716 2076 92 92" /><use xlink:href="#svg-question" x="1716" y="2076" width="92" height="92" /><symbol id="svg-alarm" viewBox="0 0 24 24" ><path d="M0 0h24v24H0z" fill="none" /><path d="M22 5.72l-4.6-3.86-1.29 1.53 4.6 3.86L22 5.72zM7.88 3.39L6.6 1.86 2 5.71l1.29 1.53 4.59-3.85zM12.5 8H11v6l4.75 2.85.75-1.23-4-2.37V8zM12 4c-4.97 0-9 4.03-9 9s4.02 9 9 9c4.97 0 9-4.03 9-9s-4.03-9-9-9zm0 16c-3.87 0-7-3.13-7-7s3.13-7 7-7 7 3.13 7 7-3.13 7-7 7z" /></symbol><view id="svg-alarm-view" viewBox="1808 2168 24 24" /><use xlink:href="#svg-alarm" x="1808" y="2168" width="24" height="24" /><symbol id="svg-layers" viewBox="0 0 24 24" ><polygon points="12 2 2 7 12 12 22 7 12 2" /><polyline points="2 17 12 22 22 17" /><polyline points="2 12 12 17 22 12" /></symbol><view id="svg-layers-view" viewBox="1832 2192 24 24" /><use xlink:href="#svg-layers" x="1832" y="2192" width="24" height="24" /><symbol id="svg-error" viewBox="0 0 24 24" ><path d="M0 0h24v24H0z" fill="none" /><path d="M12 2C6.48 2 2 6.48 2 12s4.48 10 10 10 10-4.48 10-10S17.52 2 12 2zm1 15h-2v-2h2v2zm0-4h-2V7h2v6z" /></symbol><view id="svg-error-view" viewBox="1856 2216 24 24" /><use xlink:href="#svg-error" x="1856" y="2216" width="24" height="24" /><symbol id="svg-lk-cart" viewBox="0 0 48 48" ><path d="M36.43,32H16.26a4.49,4.49,0,0,1-4.87-4.2L8.62,8.55C8.53,7.94,8.11,7,7.34,7H2.88a2,2,0,0,1,0-4H7.34c3,0,4.88,2.52,5.24,5L13,11H43a2,2,0,0,1,2,2.41L41.9,28.17C41.38,30.56,39.29,32,36.43,32Zm-.11-4c.38,0,1.52,0,1.67-.68L40.54,15H13.59l1.76,12.26c.08.53.19.66.2.66h0a1.45,1.45,0,0,0,.69.1ZM16,46a6,6,0,1,1,6-6A6,6,0,0,1,16,46Zm0-8a2,2,0,1,0,2,2A2,2,0,0,0,16,38Zm19,8a6,6,0,1,1,6-6A6,6,0,0,1,35,46Zm0-8a2,2,0,1,0,2,2A2,2,0,0,0,35,38Z" /></symbol><view id="svg-lk-cart-view" viewBox="1880 2240 48 48" /><use xlink:href="#svg-lk-cart" x="1880" y="2240" width="48" height="48" /><symbol id="svg-shop" viewBox="0 0 60 60" ><path d="M58.92,19.51v6.35c0,1.58-.83,2.38-2.49,2.38h-53a2.62,2.62,0,0,1-1.76-.63A2,2,0,0,1,.92,26V19.51A2.46,2.46,0,0,1,1.6,17.7L7.27,12V5.47A2.51,2.51,0,0,1,9.76,3H50.09a2.39,2.39,0,0,1,1.75.74,2.41,2.41,0,0,1,.74,1.76V12l5.66,5.66A2.42,2.42,0,0,1,58.92,19.51ZM54.39,31.58a2.59,2.59,0,0,0-1.81-.74,2.41,2.41,0,0,0-1.76.74,2.38,2.38,0,0,0-.73,1.75V53.38H46.24V39.9A2,2,0,0,0,44,37.64H33c-1.58,0-2.38.75-2.38,2.26V53.38H9.76V33.33A2.39,2.39,0,0,0,9,31.58a2.39,2.39,0,0,0-1.75-.74,2.53,2.53,0,0,0-1.87.74,2.39,2.39,0,0,0-.74,1.75V56a2.31,2.31,0,0,0,.79,1.76,2.61,2.61,0,0,0,1.82.73H33a2.52,2.52,0,0,0,1.87-.73A2.41,2.41,0,0,0,35.59,56V42.74h5.89V56.1a2.21,2.21,0,0,0,.73,1.7,2.48,2.48,0,0,0,1.76.68h8.61a2.54,2.54,0,0,0,1.87-.73A2.4,2.4,0,0,0,55.18,56V33.33A2.29,2.29,0,0,0,54.39,31.58Zm-.56-11-5.1-5H11.12l-5.1,5v2.61H53.83ZM12.25,8.07v3.06H47.59V8.07ZM26.18,44.89a2.32,2.32,0,0,1-2.26,2.26H15.76a2.32,2.32,0,0,1-2.26-2.26V36.73a2.32,2.32,0,0,1,2.26-2.26h8.16a2.32,2.32,0,0,1,2.26,2.26Zm-8.26-2.15h3.85V38.88H17.92Z" /></symbol><view id="svg-shop-view" viewBox="1928 2288 60 60" /><use xlink:href="#svg-shop" x="1928" y="2288" width="60" height="60" /><symbol id="svg-map-pin" viewBox="0 0 24 24" ><path d="M12,0A10,10,0,0,0,2,10c0,7.45,9.06,13.58,9.45,13.83a1,1,0,0,0,1.1,0C12.94,23.58,22,17.45,22,10A10,10,0,0,0,12,0Zm0,21.77C10.1,20.36,4,15.41,4,10a8,8,0,0,1,16,0C20,15.41,13.9,20.36,12,21.77Z" /><path d="M12,6a4,4,0,1,0,4,4A4,4,0,0,0,12,6Zm0,6a2,2,0,1,1,2-2A2,2,0,0,1,12,12Z" /></symbol><view id="svg-map-pin-view" viewBox="1988 2348 24 24" /><use xlink:href="#svg-map-pin" x="1988" y="2348" width="24" height="24" /><symbol id="svg-camera" viewBox="0 0 40 36" ><path d="M36,5H30.52a1.71,1.71,0,0,1-1.37-.69L26.6.82A2,2,0,0,0,25,0H15A2,2,0,0,0,13.4.82L10.85,4.31A1.71,1.71,0,0,1,9.48,5H4A4,4,0,0,0,0,9V32a4,4,0,0,0,4,4H36a4,4,0,0,0,4-4V9A4,4,0,0,0,36,5Zm2,27a2,2,0,0,1-2,2H4a2,2,0,0,1-2-2V9A2,2,0,0,1,4,7H9.48a3.69,3.69,0,0,0,3-1.51L15,2H25l2.55,3.49a3.69,3.69,0,0,0,3,1.51H36a2,2,0,0,1,2,2ZM20,11a9,9,0,1,0,9,9A9,9,0,0,0,20,11Zm0,16a7,7,0,1,1,7-7A7,7,0,0,1,20,27Z" /></symbol><view id="svg-camera-view" viewBox="2012 2372 40 36" /><use xlink:href="#svg-camera" x="2012" y="2372" width="40" height="36" /><symbol id="svg-google-plus" viewBox="0 0 20 21" ><path file-rule="evenodd" d="M11.309,11.813a4.21,4.21,0,0,1,1.23,1.387,3.942,3.942,0,0,1,.508,1.777A4.386,4.386,0,0,1,12.7,16.93,5.149,5.149,0,0,1,11.289,18.8a5.834,5.834,0,0,1-2.783,1.23,10.485,10.485,0,0,1-3.545.1A6.933,6.933,0,0,1,1.924,19.01a2.865,2.865,0,0,1-1.3-2.51,3.274,3.274,0,0,1,.947-2.51,5.91,5.91,0,0,1,2.139-1.3,9.032,9.032,0,0,1,2.227-.5q1.055-.088,1.25-0.107a1.639,1.639,0,0,0,.283-0.02,0.14,0.14,0,0,0,.127-0.1A0.226,0.226,0,0,0,7.559,11.8a1.28,1.28,0,0,0-.215-0.264q-0.157-.176-0.332-0.41A1.84,1.84,0,0,1,6.738,10.6,1.428,1.428,0,0,1,6.709,10a1.478,1.478,0,0,1,.322-0.684,6.743,6.743,0,0,1-1.377-.137A5.77,5.77,0,0,1,3.945,8.57,4.386,4.386,0,0,1,2.52,7.3a3.46,3.46,0,0,1-.605-2.109A4.1,4.1,0,0,1,2.5,2.955,5.736,5.736,0,0,1,3.887,1.422,5.683,5.683,0,0,1,5.508.543,3.915,3.915,0,0,1,6.816.289h6.5l-0.234.156a2.166,2.166,0,0,1-.3.205Q12.6,0.758,12.344.914a1.774,1.774,0,0,1-.6.186,4.618,4.618,0,0,1-.654.049,5.5,5.5,0,0,1-.723-0.059,4.686,4.686,0,0,1,.9.82,4.741,4.741,0,0,1,.605,1.006,3.322,3.322,0,0,1,.273,1.4,4.959,4.959,0,0,1-.176,1.4,4.209,4.209,0,0,1-.488,1.084,6.9,6.9,0,0,1-.752.889q-0.42.42-.928,0.85a1.84,1.84,0,0,0-.6.8,0.919,0.919,0,0,0,.107.742,2.987,2.987,0,0,0,.723.781q0.508,0.41,1.27.957h0ZM7.441,8.473a2.009,2.009,0,0,0,2.1-1.2,4.51,4.51,0,0,0,.186-2.627,6.44,6.44,0,0,0-1.172-2.6A2.379,2.379,0,0,0,6.563.914,1.892,1.892,0,0,0,4.639,2.1a4.709,4.709,0,0,0-.283,2.588A6.31,6.31,0,0,0,5.41,7.291,2.413,2.413,0,0,0,7.441,8.473h0ZM7.07,19.059a8.9,8.9,0,0,0,1.8-.166,3.96,3.96,0,0,0,1.348-.518,2.489,2.489,0,0,0,.84-0.869,2.437,2.437,0,0,0,.293-1.221,2.55,2.55,0,0,0-.293-1.24,3.851,3.851,0,0,0-.723-0.947,6.666,6.666,0,0,0-.908-0.762Q8.945,13,8.555,12.711a13.26,13.26,0,0,0-2.412.2,6.5,6.5,0,0,0-1.768.566A2.822,2.822,0,0,0,3.3,14.41a2.333,2.333,0,0,0-.371,1.309A3.369,3.369,0,0,0,3.2,17.086a2.858,2.858,0,0,0,.781,1.055,3.572,3.572,0,0,0,1.3.684,6.159,6.159,0,0,0,1.787.234h0ZM16.934,2.75h2.441V4.039H16.934V6.5H15.664V4.039h-2.5V2.75h2.5V0.309h1.269V2.75h0Z" /></symbol><view id="svg-google-plus-view" viewBox="2052 2408 20 21" /><use xlink:href="#svg-google-plus" x="2052" y="2408" width="20" height="21" /><symbol id="svg-plus" viewBox="0 0 448 512" ><path d="M416 208H272V64c0-17.67-14.33-32-32-32h-32c-17.67 0-32 14.33-32 32v144H32c-17.67 0-32 14.33-32 32v32c0 17.67 14.33 32 32 32h144v144c0 17.67 14.33 32 32 32h32c17.67 0 32-14.33 32-32V304h144c17.67 0 32-14.33 32-32v-32c0-17.67-14.33-32-32-32z" /></symbol><view id="svg-plus-view" viewBox="2072 2429 448 512" /><use xlink:href="#svg-plus" x="2072" y="2429" width="448" height="512" /><symbol id="svg-folder" viewBox="0 0 46 42" ><path style="fill:#bbc0c7" d="M5,0H22a3,3,0,0,1,3,3V7a0,0,0,0,1,0,0H2A0,0,0,0,1,2,7V3A3,3,0,0,1,5,0Z" /><rect y="8" width="46" height="34" rx="3" ry="3" /></symbol><view id="svg-folder-view" viewBox="2520 2941 46 42" /><use xlink:href="#svg-folder" x="2520" y="2941" width="46" height="42" /><symbol id="svg-dots-3" viewBox="0 0 92 92" ><path id="XMLID_30_" d="M21,53c-1.8,0-3.7-0.8-5-2.1c-1.3-1.3-2-3.1-2-4.9c0-1.8,0.8-3.6,2-5c1.3-1.3,3.1-2,5-2c1.8,0,3.6,0.8,4.9,2	c1.3,1.3,2.1,3.1,2.1,5c0,1.8-0.8,3.6-2.1,4.9C24.6,52.2,22.8,53,21,53z M50.9,50.9c1.3-1.3,2.1-3.1,2.1-4.9c0-1.8-0.8-3.6-2.1-5	c-1.3-1.3-3.1-2-4.9-2c-1.8,0-3.7,0.8-5,2c-1.3,1.3-2,3.1-2,5c0,1.8,0.8,3.6,2,4.9c1.3,1.3,3.1,2.1,5,2.1	C47.8,53,49.6,52.2,50.9,50.9z M75.9,50.9c1.3-1.3,2.1-3.1,2.1-4.9c0-1.8-0.8-3.6-2.1-5c-1.3-1.3-3.1-2-4.9-2c-1.8,0-3.7,0.8-5,2	c-1.3,1.3-2,3.1-2,5c0,1.8,0.8,3.6,2,4.9c1.3,1.3,3.1,2.1,5,2.1C72.8,53,74.6,52.2,75.9,50.9z" /></symbol><view id="svg-dots-3-view" viewBox="2566 2983 92 92" /><use xlink:href="#svg-dots-3" x="2566" y="2983" width="92" height="92" /><symbol id="svg-copy" viewBox="0 0 16 16" ><path d="M13.777,15.964H7.7A2.178,2.178,0,0,1,5.6,13.72V7.253A2.178,2.178,0,0,1,7.7,5.009h6.076a2.178,2.178,0,0,1,2.1,2.244V13.72A2.178,2.178,0,0,1,13.777,15.964ZM7.7,6.623a0.616,0.616,0,0,0-.6.629V13.72a0.616,0.616,0,0,0,.6.63h6.076a0.616,0.616,0,0,0,.6-0.63V7.253a0.616,0.616,0,0,0-.6-0.629H7.7ZM3.65,10.934H2.975A2.178,2.178,0,0,1,.875,8.69V2.223a2.178,2.178,0,0,1,2.1-2.244H9.051a2.178,2.178,0,0,1,2.1,2.244V2.942a0.752,0.752,0,1,1-1.5,0V2.223a0.616,0.616,0,0,0-.6-0.629H2.975a0.616,0.616,0,0,0-.6.629V8.69a0.616,0.616,0,0,0,.6.63H3.65A0.809,0.809,0,0,1,3.65,10.934Z" /></symbol><view id="svg-copy-view" viewBox="2658 3075 16 16" /><use xlink:href="#svg-copy" x="2658" y="3075" width="16" height="16" /><symbol id="svg-gift" viewBox="0 0 28 28" ><path d="M19.79,8.7H16l5.7-1.86a1.34,1.34,0,0,0,.52-2.23L17.91.41A1.3,1.3,0,0,0,17,0a1.34,1.34,0,0,0-1.3,1l-1.1,4.4a1.67,1.67,0,0,0-1.14,0L12.33,1A1.35,1.35,0,0,0,11,0a1.28,1.28,0,0,0-.93.39L5.82,4.59a1.34,1.34,0,0,0,.52,2.23L12.1,8.7H8.21a3.85,3.85,0,0,0-3.85,3.86V24.14A3.85,3.85,0,0,0,8.21,28H19.79a3.86,3.86,0,0,0,3.86-3.86V12.56A3.86,3.86,0,0,0,19.79,8.7Zm-2.5-6.2,2.85,2.8L16.28,6.57ZM7.86,5.28l2.85-2.8,1,4.07ZM13,26.07H8.21a1.92,1.92,0,0,1-1.92-1.93V16.42H13Zm0-11.58H6.29V12.56a1.93,1.93,0,0,1,1.92-1.93H13Zm8.68,9.65a1.92,1.92,0,0,1-1.93,1.93H15V16.42h6.75Zm0-9.65H15V10.63h4.82a1.93,1.93,0,0,1,1.93,1.93Z" /></symbol><view id="svg-gift-view" viewBox="2674 3091 28 28" /><use xlink:href="#svg-gift" x="2674" y="3091" width="28" height="28" /><symbol id="svg-view-card" viewBox="0 0 24 24" ><path d="M10,2H3A1,1,0,0,0,2,3v7a1,1,0,0,0,1,1h7a1,1,0,0,0,1-1V3A1,1,0,0,0,10,2ZM9,9H4V4H9ZM21,2H14a1,1,0,0,0-1,1v7a1,1,0,0,0,1,1h7a1,1,0,0,0,1-1V3A1,1,0,0,0,21,2ZM20,9H15V4h5Zm1,4H14a1,1,0,0,0-1,1v7a1,1,0,0,0,1,1h7a1,1,0,0,0,1-1V14A1,1,0,0,0,21,13Zm-1,7H15V15h5ZM10,13H3a1,1,0,0,0-1,1v7a1,1,0,0,0,1,1h7a1,1,0,0,0,1-1V14A1,1,0,0,0,10,13ZM9,20H4V15H9Z" /></symbol><view id="svg-view-card-view" viewBox="2702 3119 24 24" /><use xlink:href="#svg-view-card" x="2702" y="3119" width="24" height="24" /><symbol id="svg-chevron-right" viewBox="0 0 24 24" ><path d="M8,18a1,1,0,0,1,.29-.71L13.59,12,8.29,6.71A1,1,0,0,1,9.71,5.29l6,6a1,1,0,0,1,0,1.42l-6,6a1,1,0,0,1-1.42,0A1,1,0,0,1,8,18Z" /></symbol><view id="svg-chevron-right-view" viewBox="2726 3143 24 24" /><use xlink:href="#svg-chevron-right" x="2726" y="3143" width="24" height="24" /><symbol id="svg-view-line" viewBox="0 0 24 24" ><path d="M21,2H3A1,1,0,0,0,2,3V7A1,1,0,0,0,3,8H21a1,1,0,0,0,1-1V3A1,1,0,0,0,21,2ZM20,6H4V4H20Zm1,3H3a1,1,0,0,0-1,1v4a1,1,0,0,0,1,1H21a1,1,0,0,0,1-1V10A1,1,0,0,0,21,9Zm-1,4H4V11H20Zm1,3H3a1,1,0,0,0-1,1v4a1,1,0,0,0,1,1H21a1,1,0,0,0,1-1V17A1,1,0,0,0,21,16Zm-1,4H4V18H20Z" /></symbol><view id="svg-view-line-view" viewBox="2750 3167 24 24" /><use xlink:href="#svg-view-line" x="2750" y="3167" width="24" height="24" /><symbol id="svg-lk-subscribe" viewBox="0 0 48 48" ><path d="M22.48,30.3a2,2,0,0,1-1.38-.55l-6.43-6.1a2,2,0,0,1,2.75-2.91l5.06,4.8L44.69,4.48a2,2,0,1,1,2.76,2.9L23.85,29.75A2,2,0,0,1,22.48,30.3ZM44,38.78V24a2,2,0,1,0-4,0V38.78A2.23,2.23,0,0,1,37.8,41H8.14a2.23,2.23,0,0,1-2.23-2.22V9.22A2.23,2.23,0,0,1,8.14,7H31.45a2,2,0,1,0,0-4H8.14A6.23,6.23,0,0,0,1.91,9.22V38.78A6.23,6.23,0,0,0,8.14,45H37.8A6.24,6.24,0,0,0,44,38.78Z" /></symbol><view id="svg-lk-subscribe-view" viewBox="2774 3191 48 48" /><use xlink:href="#svg-lk-subscribe" x="2774" y="3191" width="48" height="48" /><symbol id="svg-twitter" viewBox="0 0 20 17" ><path file-rule="evenodd" d="M20,2.059a5.24,5.24,0,0,1-.479.693Q19.258,3.074,19,3.328a4.9,4.9,0,0,1-.508.479,5.189,5.189,0,0,1-.469.342V4.3A11.525,11.525,0,0,1,17.266,9a11.663,11.663,0,0,1-2.422,3.838,11.484,11.484,0,0,1-8.379,3.535,12.64,12.64,0,0,1-1.729-.117,12.067,12.067,0,0,1-1.67-.352,11.718,11.718,0,0,1-1.582-.576A14.5,14.5,0,0,1,0,14.559a6.228,6.228,0,0,0,1.992.029,7.9,7.9,0,0,0,1.68-.439,6.4,6.4,0,0,0,1.27-.654,4.16,4.16,0,0,0,.781-0.654,3.525,3.525,0,0,1-1.348-.264A4.578,4.578,0,0,1,3.223,11.9a4.332,4.332,0,0,1-.83-0.918,2.052,2.052,0,0,1-.361-0.957q0.136,0.02.352,0.039t0.469,0.02a2.829,2.829,0,0,0,.469-0.039A1.5,1.5,0,0,0,3.75,9.91a4.45,4.45,0,0,1-1.572-.723,4.381,4.381,0,0,1-.986-1.016,4.015,4.015,0,0,1-.5-1.162A4.152,4.152,0,0,1,.566,5.867a1.211,1.211,0,0,0,.381.254,2.72,2.72,0,0,0,.479.156,4.362,4.362,0,0,0,.5.049,2.8,2.8,0,0,0,.42-0.01A3.656,3.656,0,0,1,1.377,5.4,4.08,4.08,0,0,1,.723,4.07,4.333,4.333,0,0,1,.566,2.518,3.858,3.858,0,0,1,1.094.867,9.426,9.426,0,0,0,2.881,2.645a11.944,11.944,0,0,0,2.2,1.328,12.506,12.506,0,0,0,2.383.85,11.6,11.6,0,0,0,2.383.342Q9.824,5.047,9.8,4.939C9.792,4.868,9.778,4.793,9.766,4.715s0-.156-0.01-0.234-0.01-.156-0.01-0.234a4.047,4.047,0,0,1,.322-1.611,3.941,3.941,0,0,1,.889-1.3A4.166,4.166,0,0,1,12.275.447,4,4,0,0,1,13.867.125a4.233,4.233,0,0,1,.869.088,3.532,3.532,0,0,1,.791.264,4.032,4.032,0,0,1,.713.391,5.447,5.447,0,0,1,.635.508,2.441,2.441,0,0,0,.6-0.088,7.388,7.388,0,0,0,.713-0.225q0.352-.136.693-0.293A4.693,4.693,0,0,0,19.434.477a2.609,2.609,0,0,1-.273.654,4.876,4.876,0,0,1-.449.654,4.663,4.663,0,0,1-.5.566,2.087,2.087,0,0,1-.5.371,6.55,6.55,0,0,0,.7-0.117q0.351-.078.664-0.176t0.547-.2A3.406,3.406,0,0,0,20,2.059h0Z" /></symbol><view id="svg-twitter-view" viewBox="2822 3239 20 17" /><use xlink:href="#svg-twitter" x="2822" y="3239" width="20" height="17" /><symbol id="svg-trash" viewBox="0 0 24 24" ><path d="M21,5H17V4a3,3,0,0,0-3-3H10A3,3,0,0,0,7,4V5H3A1,1,0,0,0,3,7H4V20a3,3,0,0,0,3,3H17a3,3,0,0,0,3-3V7h1a1,1,0,0,0,0-2ZM9,4a1,1,0,0,1,1-1h4a1,1,0,0,1,1,1V5H9Zm9,16a1,1,0,0,1-1,1H7a1,1,0,0,1-1-1V7H18Zm-7-9v6a1,1,0,0,1-2,0V11a1,1,0,0,1,2,0Zm3-1a1,1,0,0,0-1,1v6a1,1,0,0,0,2,0V11A1,1,0,0,0,14,10Z" /></symbol><view id="svg-trash-view" viewBox="2842 3256 24 24" /><use xlink:href="#svg-trash" x="2842" y="3256" width="24" height="24" /><symbol id="svg-message" viewBox="0 0 24 24" ><path d="M21 15a2 2 0 0 1-2 2H7l-4 4V5a2 2 0 0 1 2-2h14a2 2 0 0 1 2 2z" /></symbol><view id="svg-message-view" viewBox="2866 3280 24 24" /><use xlink:href="#svg-message" x="2866" y="3280" width="24" height="24" /><symbol id="svg-ok" viewBox="0 0 12 21" ><path file-rule="evenodd" d="M5,14.352a0.729,0.729,0,0,0-.068.078,0.191,0.191,0,0,1-.068.059,0.742,0.742,0,0,1-.078.068c-0.026.02-.059,0.043-0.1,0.068l-0.85.85-0.85.85-0.859.859q-0.43.43-.859,0.84-0.078.1-.146,0.2c-0.046.065-.088,0.13-0.127,0.2s-0.052.137-.078,0.215a0.794,0.794,0,0,0-.039.254,0.979,0.979,0,0,0,.029.361,1.223,1.223,0,0,0,.146.342,1.764,1.764,0,0,0,.264.313,1.45,1.45,0,0,0,.342.234,1.459,1.459,0,0,0,.352.107,0.81,0.81,0,0,0,.332-0.01,0.954,0.954,0,0,0,.342-0.107,1.068,1.068,0,0,0,.3-0.244q0.352-.332.684-0.664l0.664-.664L5,17.887q0.332-.332.645-0.664,0.1-.078.166-0.127a0.225,0.225,0,0,1,.127-0.049,0.317,0.317,0,0,1,.137.039,0.736,0.736,0,0,1,.176.137q0.312,0.332.635,0.664t0.654,0.664q0.312,0.313.645,0.635T8.852,19.84a1.8,1.8,0,0,0,.166.146,1.234,1.234,0,0,0,.205.127,0.814,0.814,0,0,0,.205.088,2.3,2.3,0,0,0,.225.049,1,1,0,0,0,.391-0.039,1.116,1.116,0,0,0,.352-0.176,1.173,1.173,0,0,0,.313-0.254,1.676,1.676,0,0,0,.234-0.351,1.459,1.459,0,0,0,.107-0.352,0.81,0.81,0,0,0-.01-0.332,0.954,0.954,0,0,0-.107-0.342,1.069,1.069,0,0,0-.244-0.3q-0.43-.449-0.869-0.879t-0.869-.859q-0.43-.429-0.859-0.869t-0.879-.869a0.624,0.624,0,0,0-.059-0.049,0.188,0.188,0,0,1-.059-0.068L7.016,14.43l-0.078-.078q0.332-.039.654-0.088t0.635-.127q0.312-.059.615-0.146t0.6-.205a6.355,6.355,0,0,0,.605-0.264,6.025,6.025,0,0,0,1.094-.7,6.226,6.226,0,0,0,.488-0.44,1.11,1.11,0,0,0,.234-0.332,0.863,0.863,0,0,0,.078-0.352A1,1,0,0,0,11.9,11.3a1.5,1.5,0,0,0-.43-0.693,0.852,0.852,0,0,0-.312-0.185,1.023,1.023,0,0,0-.361-0.088,1.533,1.533,0,0,0-.381.029l-0.2.078q-0.1.039-.176,0.078c-0.065.039-.127,0.078-0.186,0.117s-0.114.078-.166,0.117a6.753,6.753,0,0,1-1.816.83,6.577,6.577,0,0,1-1.973.264,6.669,6.669,0,0,1-1.943-.293,6.365,6.365,0,0,1-1.807-.879c-0.026-.013-0.056-0.026-0.088-0.039S2,10.615,1.977,10.6A0.314,0.314,0,0,0,1.9,10.543L1.82,10.5a1.449,1.449,0,0,0-.459-0.146,1.42,1.42,0,0,0-.439.01,0.951,0.951,0,0,0-.371.166,1.178,1.178,0,0,0-.293.3,1.8,1.8,0,0,0-.225.449,1.076,1.076,0,0,0-.049.43,1.22,1.22,0,0,0,.117.42,1.311,1.311,0,0,0,.313.4,1,1,0,0,0,.088.078,1.41,1.41,0,0,1,.107.1l0.117,0.078,0.117,0.078a6.022,6.022,0,0,0,.938.605A6.964,6.964,0,0,0,2.8,13.9a7.688,7.688,0,0,0,1.064.283Q4.418,14.293,5,14.352H5Zm0.957-3.984a4.982,4.982,0,0,0,1.973-.391A5.439,5.439,0,0,0,9.555,8.922,5.334,5.334,0,0,0,10.648,7.33a4.712,4.712,0,0,0,.41-1.963,5.058,5.058,0,0,0-.391-1.982A5.233,5.233,0,0,0,9.594,1.754,4.779,4.779,0,0,0,8.012.65,4.884,4.884,0,0,0,6.039.25a4.952,4.952,0,0,0-1.982.4A5.126,5.126,0,0,0,2.445,1.734a5.3,5.3,0,0,0-1.094,1.6,4.781,4.781,0,0,0-.41,1.973,4.931,4.931,0,0,0,.391,1.953A5.248,5.248,0,0,0,2.406,8.883a5.146,5.146,0,0,0,1.6,1.084,4.83,4.83,0,0,0,1.953.4h0Zm2.5-5.059a2.535,2.535,0,0,1-.186.977,2.375,2.375,0,0,1-.518.781,2.5,2.5,0,0,1-.781.527,2.327,2.327,0,0,1-.937.2A2.529,2.529,0,0,1,5.063,7.6a2.6,2.6,0,0,1-.8-0.518A2.5,2.5,0,0,1,3.734,6.3a2.371,2.371,0,0,1-.2-0.957,2.21,2.21,0,0,1,.176-0.977,2.752,2.752,0,0,1,.527-0.8,2.477,2.477,0,0,1,.791-0.527,2.491,2.491,0,0,1,1.934,0,2.484,2.484,0,0,1,.791.527,2.381,2.381,0,0,1,.518.781,2.485,2.485,0,0,1,.186.957h0Z" /></symbol><view id="svg-ok-view" viewBox="2890 3304 12 21" /><use xlink:href="#svg-ok" x="2890" y="3304" width="12" height="21" /><symbol id="svg-arrow-up" viewBox="0 0 24 24" ><path d="M11.24,4.93l-5.14,6a1,1,0,0,0,1.52,1.3l3.38-4V18.71a1,1,0,0,0,2,0V8.28l3.38,4a1,1,0,0,0,1.52-1.3l-5.14-6a1,1,0,0,0-1.52,0Z" /></symbol><view id="svg-arrow-up-view" viewBox="2902 3325 24 24" /><use xlink:href="#svg-arrow-up" x="2902" y="3325" width="24" height="24" /><symbol id="svg-navigation" viewBox="0 0 24 24" ><path d="M12.49,22h-.1a1,1,0,0,1-.87-.75l-1.81-7L2.44,12.5a1,1,0,0,1-.76-.88,1,1,0,0,1,.58-1L20.91,2.09a1,1,0,0,1,1.14.21,1,1,0,0,1,.18,1.14l-8.84,18A1,1,0,0,1,12.49,22ZM5.72,11.23l5,1.22a1,1,0,0,1,.73.72l1.29,5L19.2,5.07Z" /></symbol><view id="svg-navigation-view" viewBox="2926 3349 24 24" /><use xlink:href="#svg-navigation" x="2926" y="3349" width="24" height="24" /><symbol id="svg-ruler" viewBox="0 0 16 10" ><path d="M1 0C0.447715 0 0 0.447715 0 1V9C0 9.55229 0.447715 10 1 10H15C15.5523 10 16 9.55228 16 9V1C16 0.447715 15.5523 0 15 0H1ZM1.5 1C1.22386 1 1 1.22386 1 1.5V8.5C1 8.77614 1.22386 9 1.5 9H14.5C14.7761 9 15 8.77614 15 8.5V1.5C15 1.22386 14.7761 1 14.5 1H13V6H12V1H10V4H9V1H7V6H6V1H4V4H3V1H1.5Z" /></symbol><view id="svg-ruler-view" viewBox="2950 3373 16 10" /><use xlink:href="#svg-ruler" x="2950" y="3373" width="16" height="10" /><symbol id="svg-order-delivery" viewBox="0 0 22 17" ><path d="M20,8.18A.58.58,0,0,0,20,8V6a2.84,2.84,0,0,0-3-3H14V1c0-.55-.45-1,0-1H3C1.45,0,0,.45,0,2V13.11C0,13.71,1.29,15,2.89,15h.29a3,3,0,0,0,5.64,0h4.36a3,3,0,0,0,5.64,0H21a1,1,0,0,0,1-1V11A3,3,0,0,0,20,8.18ZM14,5h3a.87.87,0,0,1,1,1V8H14ZM6,15a1,1,0,1,1,1-1A1,1,0,0,1,6,15Zm10,0a1,1,0,1,1,1-1A1,1,0,0,1,16,15Zm4-2H18.82a3,3,0,0,0-5.64,0H8.82a3,3,0,0,0-5.64,0H2.89A.89.89,0,0,1,2,12.11V2H12V8H5a1,1,0,0,0,0,2H19a1,1,0,0,1,1,1Z" /></symbol><view id="svg-order-delivery-view" viewBox="2966 3383 22 17" /><use xlink:href="#svg-order-delivery" x="2966" y="3383" width="22" height="17" /><symbol id="svg-search" viewBox="0 0 24 24" ><path class="cls-1" d="M22.07,20.66l-4.9-4.9a8.51,8.51,0,1,0-1.41,1.41l4.9,4.9a1,1,0,1,0,1.41-1.41ZM10.5,17A6.5,6.5,0,1,1,17,10.5,6.5,6.5,0,0,1,10.5,17Z" /></symbol><view id="svg-search-view" viewBox="2988 3400 24 24" /><use xlink:href="#svg-search" x="2988" y="3400" width="24" height="24" /><symbol id="svg-meh" viewBox="0 0 496 512" ><path d="M248 8C111 8 0 119 0 256s111 248 248 248 248-111 248-248S385 8 248 8zm0 448c-110.3 0-200-89.7-200-200S137.7 56 248 56s200 89.7 200 200-89.7 200-200 200zm-80-216c17.7 0 32-14.3 32-32s-14.3-32-32-32-32 14.3-32 32 14.3 32 32 32zm160-64c-17.7 0-32 14.3-32 32s14.3 32 32 32 32-14.3 32-32-14.3-32-32-32zm8 144H160c-13.2 0-24 10.8-24 24s10.8 24 24 24h176c13.2 0 24-10.8 24-24s-10.8-24-24-24z" /></symbol><view id="svg-meh-view" viewBox="3012 3424 496 512" /><use xlink:href="#svg-meh" x="3012" y="3424" width="496" height="512" /><symbol id="svg-arrow-left" viewBox="0 0 24 24" ><path d="M4.22,12.76l6,5.14a1,1,0,0,0,1.3-1.52L7.57,13H18a1,1,0,0,0,0-2H7.57l3.95-3.38a1,1,0,0,0-1.3-1.52l-6,5.14a1,1,0,0,0,0,1.52Z" /></symbol><view id="svg-arrow-left-view" viewBox="3508 3936 24 24" /><use xlink:href="#svg-arrow-left" x="3508" y="3936" width="24" height="24" /><symbol id="svg-select-circle" viewBox="0 0 48.07 48" ><path d="M22.48,30.3a2,2,0,0,1-1.38-.55l-6.43-6.1a2,2,0,0,1,2.75-2.91l5.06,4.8L44.69,4.48a2,2,0,1,1,2.76,2.9L23.85,29.75A2,2,0,0,1,22.48,30.3ZM48,24a23.53,23.53,0,0,0-.31-3.85,2,2,0,1,0-3.95.63A20.37,20.37,0,0,1,44,24,20,20,0,1,1,24,4a19.76,19.76,0,0,1,8.67,2,2,2,0,0,0,1.74-3.6A24,24,0,1,0,48,24Z" /></symbol><view id="svg-select-circle-view" viewBox="3532 3960 48.07 48" /><use xlink:href="#svg-select-circle" x="3532" y="3960" width="48.07" height="48" /><symbol id="svg-mail" viewBox="0 0 24 24" ><path d="M22,6.83v0A3,3,0,0,0,19,4H5A3,3,0,0,0,2,6.81v0A.88.88,0,0,0,2,7V17a3,3,0,0,0,3,3H19a3,3,0,0,0,3-3V7A.88.88,0,0,0,22,6.83ZM5,6H19a1,1,0,0,1,.88.55L12,11.8,4.12,6.55A1,1,0,0,1,5,6ZM19,18H5a1,1,0,0,1-1-1V8.87l7.45,5a1,1,0,0,0,1.1,0l7.45-5V17A1,1,0,0,1,19,18Z" /></symbol><view id="svg-mail-view" viewBox="3581 4008 24 24" /><use xlink:href="#svg-mail" x="3581" y="4008" width="24" height="24" /><symbol id="svg-arrow-right" viewBox="0 0 24 24" ><path d="M19.65,11.24l-6-5.14a1,1,0,1,0-1.3,1.52l4,3.38H5.87a1,1,0,0,0,0,2H16.3l-4,3.38a1,1,0,0,0,1.3,1.52l6-5.14a1,1,0,0,0,0-1.52Z" /></symbol><view id="svg-arrow-right-view" viewBox="3605 4032 24 24" /><use xlink:href="#svg-arrow-right" x="3605" y="4032" width="24" height="24" /><symbol id="svg-lk-orders" viewBox="0 0 48 48" ><path class="cls-1" d="M43.27,14.14,29.84,1.54A2,2,0,0,0,28.47,1H10.58A6.35,6.35,0,0,0,4.1,7.2V40.8A6.35,6.35,0,0,0,10.58,47H37.42a6.35,6.35,0,0,0,6.48-6.2V15.6A2,2,0,0,0,43.27,14.14ZM30.92,8,37.24,14H30.92Zm6.5,35H10.58A2.36,2.36,0,0,1,8.1,40.8V7.2A2.36,2.36,0,0,1,10.58,5H26.92V16a2,2,0,0,0,2,2h11V40.8A2.36,2.36,0,0,1,37.42,43ZM34,27H14a2,2,0,0,1-2-2h0a2,2,0,0,1,2-2H34a2,2,0,0,1,2,2h0A2,2,0,0,1,34,27Zm0,8H14a2,2,0,0,1-2-2h0a2,2,0,0,1,2-2H34a2,2,0,0,1,2,2h0A2,2,0,0,1,34,35ZM19,19H14a2,2,0,0,1-2-2h0a2,2,0,0,1,2-2h5a2,2,0,0,1,2,2h0A2,2,0,0,1,19,19Z" /></symbol><view id="svg-lk-orders-view" viewBox="3629 4056 48 48" /><use xlink:href="#svg-lk-orders" x="3629" y="4056" width="48" height="48" /><symbol id="svg-lk-profiles" viewBox="0 0 48 48" ><path d="M10,15a6,6,0,1,1,6-6A6,6,0,0,1,10,15Zm0-8a2,2,0,1,0,2,2A2,2,0,0,0,10,7Zm0,23a6,6,0,1,1,6-6A6,6,0,0,1,10,30Zm0-8a2,2,0,1,0,2,2A2,2,0,0,0,10,22Zm0,23a6,6,0,1,1,6-6A6,6,0,0,1,10,45Zm0-8a2,2,0,1,0,2,2A2,2,0,0,0,10,37ZM44,9h0a2,2,0,0,0-2-2H21a2,2,0,0,0-2,2h0a2,2,0,0,0,2,2H42A2,2,0,0,0,44,9Zm0,15h0a2,2,0,0,0-2-2H21a2,2,0,0,0-2,2h0a2,2,0,0,0,2,2H42A2,2,0,0,0,44,24Zm0,15h0a2,2,0,0,0-2-2H21a2,2,0,0,0-2,2h0a2,2,0,0,0,2,2H42A2,2,0,0,0,44,39Z" /></symbol><view id="svg-lk-profiles-view" viewBox="3677 4104 48 48" /><use xlink:href="#svg-lk-profiles" x="3677" y="4104" width="48" height="48" /><symbol id="svg-exit" viewBox="0 0 24 24" ><path d="M0 0h24v24H0z" fill="none" /><path d="M10.09 15.59L11.5 17l5-5-5-5-1.41 1.41L12.67 11H3v2h9.67l-2.58 2.59zM19 3H5c-1.11 0-2 .9-2 2v4h2V5h14v14H5v-4H3v4c0 1.1.89 2 2 2h14c1.1 0 2-.9 2-2V5c0-1.1-.9-2-2-2z" /></symbol><view id="svg-exit-view" viewBox="3725 4152 24 24" /><use xlink:href="#svg-exit" x="3725" y="4152" width="24" height="24" /><symbol id="svg-close" viewBox="0 0 24 24" ><path d="M19 6.41L17.59 5 12 10.59 6.41 5 5 6.41 10.59 12 5 17.59 6.41 19 12 13.41 17.59 19 19 17.59 13.41 12z" /><path d="M0 0h24v24H0z" fill="none" /></symbol><view id="svg-close-view" viewBox="3749 4176 24 24" /><use xlink:href="#svg-close" x="3749" y="4176" width="24" height="24" /><symbol id="svg-chevron-up" viewBox="0 0 24 24" ><path d="M18,16a1,1,0,0,1-.71-.29L12,10.41l-5.29,5.3a1,1,0,0,1-1.42-1.42l6-6a1,1,0,0,1,1.42,0l6,6a1,1,0,0,1,0,1.42A1,1,0,0,1,18,16Z" /></symbol><view id="svg-chevron-up-view" viewBox="3773 4200 24 24" /><use xlink:href="#svg-chevron-up" x="3773" y="4200" width="24" height="24" /><symbol id="svg-chevron-down" viewBox="0 0 24 24" ><path d="M12,16a1,1,0,0,1-.71-.29l-6-6A1,1,0,0,1,6.71,8.29L12,13.59l5.29-5.3a1,1,0,0,1,1.42,1.42l-6,6A1,1,0,0,1,12,16Z" /></symbol><view id="svg-chevron-down-view" viewBox="3797 4224 24 24" /><use xlink:href="#svg-chevron-down" x="3797" y="4224" width="24" height="24" /><symbol id="svg-dialog" viewBox="0 0 24 24" ><path d="M3,23a.84.84,0,0,1-.38-.08A1,1,0,0,1,2,22V6A3,3,0,0,1,5,3H19a3,3,0,0,1,3,3V16a3,3,0,0,1-3,3H7.41l-3.7,3.71A1,1,0,0,1,3,23ZM5,5A1,1,0,0,0,4,6V19.59l2.29-2.3A1,1,0,0,1,7,17H19a1,1,0,0,0,1-1V6a1,1,0,0,0-1-1Zm4,5H7v2H9Zm4,0H11v2h2Zm4,0H15v2h2Z" /></symbol><view id="svg-dialog-view" viewBox="3821 4248 24 24" /><use xlink:href="#svg-dialog" x="3821" y="4248" width="24" height="24" /><symbol id="svg-lk-order-history" viewBox="0 0 48 48" ><path class="cls-1" d="M24,47A23,23,0,1,1,47,24,23,23,0,0,1,24,47ZM24,5A19,19,0,1,0,43,24,19,19,0,0,0,24,5Zm8.08,26.68A2,2,0,0,0,32,28.85l-6-5.71V11.4a2,2,0,1,0-4,0V24a2,2,0,0,0,.62,1.45l6.63,6.3a2,2,0,0,0,2.83-.07Z" /></symbol><view id="svg-lk-order-history-view" viewBox="3845 4272 48 48" /><use xlink:href="#svg-lk-order-history" x="3845" y="4272" width="48" height="48" /><symbol id="svg-vkontakte" viewBox="0 0 20 12" ><path file-rule="evenodd" d="M9.785,11.914a5.914,5.914,0,0,1-1.6-.234A7.256,7.256,0,0,1,6.582,11,7.039,7.039,0,0,1,4.844,9.57,15.032,15.032,0,0,1,3.027,7.227Q2.168,5.879,1.5,4.648T0.059,1.68A0.343,0.343,0,0,1,.02,1.523,0.46,0.46,0,0,1,.01,1.357,0.483,0.483,0,0,1,.059,1.191,0.376,0.376,0,0,1,.215,1.045,0.785,0.785,0,0,1,.41.977H3.5A0.44,0.44,0,0,1,3.633,1a0.782,0.782,0,0,1,.156.059c0.052,0.026.11,0.059,0.176,0.1q0.059,0.059.107,0.117c0.032,0.039.062,0.072,0.088,0.1a1,1,0,0,0,.059.137q0.156,0.391.293,0.7T4.844,2.92q0.2,0.4.43,0.791,0.449,0.781.791,1.27a5.666,5.666,0,0,0,.6.742,1.077,1.077,0,0,0,.439.3A0.471,0.471,0,0,0,7.441,6,0.827,0.827,0,0,0,7.754,5.41a5.911,5.911,0,0,0,.117-0.977q0.019-.527-0.02-1.348-0.02-.312-0.039-0.527-0.039-.215-0.1-0.449a1.082,1.082,0,0,0-.176-0.391,1.015,1.015,0,0,0-.215-0.2A2.218,2.218,0,0,0,7.09,1.387Q6.953,1.348,6.836,1.318A0.8,0.8,0,0,0,6.66,1.289,0.071,0.071,0,0,1,6.611,1.2,0.328,0.328,0,0,1,6.68,1.055,1.239,1.239,0,0,1,6.865.869,1.2,1.2,0,0,1,7.09.723,1.73,1.73,0,0,1,7.559.576,5.239,5.239,0,0,1,8.145.508,5.549,5.549,0,0,1,8.828.469H9.59q0.312,0,.527.01t0.371,0.01a2.359,2.359,0,0,1,.273.049C10.84,0.557,10.918.573,11,.586a0.89,0.89,0,0,1,.527.322,1.207,1.207,0,0,1,.176.635,6.44,6.44,0,0,1,0,1.006q-0.039.6-.039,1.416,0,0.274-.01.576a5.471,5.471,0,0,0,.01.576,2.1,2.1,0,0,0,.1.527A0.622,0.622,0,0,0,12.031,6a0.3,0.3,0,0,0,.225.039,0.88,0.88,0,0,0,.4-0.254,4.17,4.17,0,0,0,.605-0.693q0.352-.478.859-1.338a7.624,7.624,0,0,0,.459-0.811q0.205-.42.361-0.752,0.136-.352.313-0.781l0.059-.117A0.691,0.691,0,0,1,15.4,1.182a0.718,0.718,0,0,1,.107-0.088,0.306,0.306,0,0,1,.117-0.049,0.723,0.723,0,0,1,.117-0.01,0.247,0.247,0,0,1,.137,0h2.988a3.313,3.313,0,0,1,.508,0,1.287,1.287,0,0,1,.361.088,0.328,0.328,0,0,1,.205.186,0.962,0.962,0,0,1-.029.439,4.305,4.305,0,0,1-.244.654q-0.2.371-.518,0.869t-0.771,1.1Q17.617,5.391,17.2,5.918a2.116,2.116,0,0,0-.478.879,0.752,0.752,0,0,0,.2.674,12.225,12.225,0,0,0,.9.908q0.605,0.567.986,0.977a8.283,8.283,0,0,1,.6.7q0.215,0.293.3,0.439T19.8,10.684a0.892,0.892,0,0,1,.166.644,0.705,0.705,0,0,1-.244.371,1.165,1.165,0,0,1-.381.166,1.467,1.467,0,0,1-.283.049H16.406a2.181,2.181,0,0,1-.43-0.039,1.98,1.98,0,0,1-.43-0.1,1.941,1.941,0,0,1-.488-0.254,3.683,3.683,0,0,1-.752-0.664q-0.361-.41-0.713-0.8a5.121,5.121,0,0,0-.645-0.615,0.624,0.624,0,0,0-.566-0.166,0.738,0.738,0,0,0-.439.4,2.443,2.443,0,0,0-.205.615,6.348,6.348,0,0,0-.078.84,1.008,1.008,0,0,1-.02.2c-0.013.052-.029,0.107-0.049,0.166a0.579,0.579,0,0,1-.088.166,0.567,0.567,0,0,1-.166.146,0.679,0.679,0,0,1-.166.068l-0.2.039H9.785Z" /></symbol><view id="svg-vkontakte-view" viewBox="3893 4320 20 12" /><use xlink:href="#svg-vkontakte" x="3893" y="4320" width="20" height="12" /><symbol id="svg-e-mail" viewBox="0 0 13.71 13.71" ><path d="M13.71,6.86a4.45,4.45,0,0,1-.33,1.76,3,3,0,0,1-.88,1.2,4.27,4.27,0,0,1-1.17.67,4.09,4.09,0,0,1-1.29.24H9.75a1.62,1.62,0,0,1-1.27-.47,1.4,1.4,0,0,1-.29-.74,3.8,3.8,0,0,1-1.18,1,3.16,3.16,0,0,1-1.55.39,2.86,2.86,0,0,1-2.22-.85,3.4,3.4,0,0,1-.79-2.41A5.66,5.66,0,0,1,3,5.05,4.88,4.88,0,0,1,4.63,3.17a3.84,3.84,0,0,1,2.2-.69,2.93,2.93,0,0,1,1.38.32,2.33,2.33,0,0,1,.95.89l0-.17.1-.5a.18.18,0,0,1,.05-.11.1.1,0,0,1,.08-.05h1.05s.07,0,.12.1a.15.15,0,0,1,0,.14L9.54,8.58a2.1,2.1,0,0,0,0,.43.7.7,0,0,0,.11.46.55.55,0,0,0,.4.12,4.4,4.4,0,0,0,.51-.05,3.17,3.17,0,0,0,.65-.21,2.74,2.74,0,0,0,.69-.45,2.4,2.4,0,0,0,.51-.8,3.28,3.28,0,0,0,.21-1.22A5.63,5.63,0,0,0,11,2.7,5.63,5.63,0,0,0,6.86,1.14a5.42,5.42,0,0,0-2.22.46,5.66,5.66,0,0,0-3,3,5.42,5.42,0,0,0-.46,2.22A5.49,5.49,0,0,0,1.6,9.08,5.76,5.76,0,0,0,2.82,10.9a5.82,5.82,0,0,0,1.82,1.22,5.58,5.58,0,0,0,2.22.45,5.59,5.59,0,0,0,3.61-1.28.32.32,0,0,1,.22-.08.31.31,0,0,1,.19.11l.36.44a.29.29,0,0,1,.06.21.3.3,0,0,1-.1.2,7.12,7.12,0,0,1-2,1.14,6.77,6.77,0,0,1-2.31.4,6.69,6.69,0,0,1-2.66-.54A6.83,6.83,0,0,1,2,11.71,7.26,7.26,0,0,1,.54,9.52a6.82,6.82,0,0,1,0-5.32A6.83,6.83,0,0,1,4.2.54,6.69,6.69,0,0,1,6.86,0a6.72,6.72,0,0,1,5,1.89A6.73,6.73,0,0,1,13.71,6.86Zm-5-1.08A2.19,2.19,0,0,0,8.2,4.27a1.65,1.65,0,0,0-1.32-.55A2.34,2.34,0,0,0,5.78,4a3.37,3.37,0,0,0-1,.75A3.89,3.89,0,0,0,4.08,6a4.69,4.69,0,0,0-.27,1.61,2.28,2.28,0,0,0,.48,1.55,1.7,1.7,0,0,0,1.34.54,2.44,2.44,0,0,0,1.58-.59A3.9,3.9,0,0,0,8.3,7.59,4.59,4.59,0,0,0,8.68,5.78Z" /></symbol><view id="svg-e-mail-view" viewBox="3913 4332 13.71 13.71" /><use xlink:href="#svg-e-mail" x="3913" y="4332" width="13.71" height="13.71" /><symbol id="svg-cross" viewBox="0 0 24 24" ><path d="M13.41,12l5.3-5.29a1,1,0,1,0-1.42-1.42L12,10.59,6.71,5.29A1,1,0,0,0,5.29,6.71L10.59,12l-5.3,5.29a1,1,0,0,0,0,1.42,1,1,0,0,0,1.42,0L12,13.41l5.29,5.3a1,1,0,0,0,1.42,0,1,1,0,0,0,0-1.42Z" /></symbol><view id="svg-cross-view" viewBox="3927 4346 24 24" /><use xlink:href="#svg-cross" x="3927" y="4346" width="24" height="24" /><symbol id="svg-star-solid" viewBox="0 0 576 512" ><path d="M259.3 17.8L194 150.2 47.9 171.5c-26.2 3.8-36.7 36.1-17.7 54.6l105.7 103-25 145.5c-4.5 26.3 23.2 46 46.4 33.7L288 439.6l130.7 68.7c23.2 12.2 50.9-7.4 46.4-33.7l-25-145.5 105.7-103c19-18.5 8.5-50.8-17.7-54.6L382 150.2 316.7 17.8c-11.7-23.6-45.6-23.9-57.4 0z" /></symbol><view id="svg-star-solid-view" viewBox="3951 4370 576 512" /><use xlink:href="#svg-star-solid" x="3951" y="4370" width="576" height="512" /><symbol id="svg-order-pin-small" viewBox="0 0 16.36 20" ><path d="M8.18,20a1,1,0,0,1-.56-.17C7.31,19.61,0,14.55,0,8.36A8.28,8.28,0,0,1,8.18,0a8.28,8.28,0,0,1,8.18,8.36c0,6.19-7.3,11.25-7.61,11.47A1.06,1.06,0,0,1,8.18,20Zm0-18A6.28,6.28,0,0,0,2,8.36c0,4.25,4.56,8.14,6.18,9.4,1.62-1.26,6.18-5.16,6.18-9.4A6.28,6.28,0,0,0,8.18,2Zm0,9.82a3.46,3.46,0,1,1,3.4-3.46A3.43,3.43,0,0,1,8.18,11.82Zm0-4.91a1.46,1.46,0,1,0,1.4,1.45A1.42,1.42,0,0,0,8.18,6.91Z" /></symbol><view id="svg-order-pin-small-view" viewBox="4527 4882 16.36 20" /><use xlink:href="#svg-order-pin-small" x="4527" y="4882" width="16.36" height="20" /><symbol id="svg-chevron-left" viewBox="0 0 24 24" ><path d="M16,6a1,1,0,0,1-.29.71L10.41,12l5.3,5.29a1,1,0,0,1-1.42,1.42l-6-6a1,1,0,0,1,0-1.42l6-6a1,1,0,0,1,1.42,0A1,1,0,0,1,16,6Z" /></symbol><view id="svg-chevron-left-view" viewBox="4544 4902 24 24" /><use xlink:href="#svg-chevron-left" x="4544" y="4902" width="24" height="24" /><symbol id="svg-order-user" viewBox="0 0 18 20" ><path d="M13,12H5a5,5,0,0,0-5,5v2a1,1,0,0,0,2,0V17a3,3,0,0,1,3-3h8a3,3,0,0,1,3,3v2a1,1,0,0,0,2,0V17A5,5,0,0,0,13,12Z" /><path d="M9,10A5,5,0,1,0,4,5,5,5,0,0,0,9,10ZM9,2A3,3,0,1,1,6,5,3,3,0,0,1,9,2Z" /></symbol><view id="svg-order-user-view" viewBox="4568 4926 18 20" /><use xlink:href="#svg-order-user" x="4568" y="4926" width="18" height="20" /><symbol id="svg-instagram" viewBox="0 0 20 21" ><path file-rule="evenodd" d="M2.559,0.25a2.684,2.684,0,0,0-1,.186,2.332,2.332,0,0,0-.8.518,2.4,2.4,0,0,0-.557.811A2.626,2.626,0,0,0,0,2.809V17.691a2.624,2.624,0,0,0,.205,1.045,2.4,2.4,0,0,0,.557.811,2.333,2.333,0,0,0,.8.518,2.685,2.685,0,0,0,1,.186H17.441a2.685,2.685,0,0,0,1-.186,2.336,2.336,0,0,0,.8-0.518,2.4,2.4,0,0,0,.557-0.811A2.624,2.624,0,0,0,20,17.691V2.809a2.626,2.626,0,0,0-.205-1.045A2.4,2.4,0,0,0,19.238.953a2.335,2.335,0,0,0-.8-0.518,2.683,2.683,0,0,0-1-.186H2.559ZM14.57,2.477h2.246a0.892,0.892,0,0,1,.342.068,1.123,1.123,0,0,1,.3.186,0.861,0.861,0,0,1,.186.283,0.942,0.942,0,0,1,.068.361V5.523a0.94,0.94,0,0,1-.068.361,0.858,0.858,0,0,1-.186.283,0.923,0.923,0,0,1-.3.205,0.886,0.886,0,0,1-.342.068H14.57a0.835,0.835,0,0,1-.361-0.078,0.989,0.989,0,0,1-.283-0.2,0.735,0.735,0,0,1-.205-0.283,0.935,0.935,0,0,1-.068-0.361V3.375a0.837,0.837,0,0,1,.078-0.361,0.993,0.993,0,0,1,.2-0.283,0.858,0.858,0,0,1,.283-0.186,0.941,0.941,0,0,1,.361-0.068h0Zm3.184,6.25-0.039,8.438a0.809,0.809,0,0,1-.058.3,0.717,0.717,0,0,1-.156.244,1.306,1.306,0,0,1-.254.166,0.688,0.688,0,0,1-.312.068H3.008A0.687,0.687,0,0,1,2.7,17.877a1.3,1.3,0,0,1-.254-0.166,0.711,0.711,0,0,1-.156-0.244,0.807,0.807,0,0,1-.059-0.3V8.727H4.063q-0.059.2-.107,0.4a2.931,2.931,0,0,0-.068.42Q3.847,9.781,3.828,10t-0.02.449A5.682,5.682,0,0,0,4.3,12.789,6.151,6.151,0,0,0,5.625,14.7a6.4,6.4,0,0,0,1.992,1.289,6.491,6.491,0,0,0,4.844,0,6.091,6.091,0,0,0,3.3-3.213,5.708,5.708,0,0,0,.488-2.334q0-.234-0.02-0.449t-0.039-.449q-0.039-.215-0.088-0.42T16,8.727h1.758ZM10.039,6.3a4.035,4.035,0,0,1,3.7,2.363,3.739,3.739,0,0,1,0,3.037,3.986,3.986,0,0,1-.869,1.24,4.194,4.194,0,0,1-1.279.84,3.914,3.914,0,0,1-1.553.313,4.082,4.082,0,0,1-2.852-1.133,4.016,4.016,0,0,1-.869-1.23,3.739,3.739,0,0,1,0-3.037,3.984,3.984,0,0,1,.869-1.24,4.2,4.2,0,0,1,1.279-.84A3.967,3.967,0,0,1,10.039,6.3h0Z" /></symbol><view id="svg-instagram-view" viewBox="4586 4946 20 21" /><use xlink:href="#svg-instagram" x="4586" y="4946" width="20" height="21" /><symbol id="svg-catalog" viewBox="0 0 10 10" ><path data-name="Rounded Rectangle 969 copy 7" class="cls-1" d="M644,76a1,1,0,1,1-1,1A1,1,0,0,1,644,76Zm4,0a1,1,0,1,1-1,1A1,1,0,0,1,648,76Zm4,0a1,1,0,1,1-1,1A1,1,0,0,1,652,76Zm-8,4a1,1,0,1,1-1,1A1,1,0,0,1,644,80Zm4,0a1,1,0,1,1-1,1A1,1,0,0,1,648,80Zm4,0a1,1,0,1,1-1,1A1,1,0,0,1,652,80Zm-8,4a1,1,0,1,1-1,1A1,1,0,0,1,644,84Zm4,0a1,1,0,1,1-1,1A1,1,0,0,1,648,84Zm4,0a1,1,0,1,1-1,1A1,1,0,0,1,652,84Z" transform="translate(-643 -76)" /></symbol><view id="svg-catalog-view" viewBox="4606 4967 10 10" /><use xlink:href="#svg-catalog" x="4606" y="4967" width="10" height="10" /><symbol id="svg-lk-private" viewBox="0 0 48 48" ><path d="M24,47a2,2,0,0,1-.85-.19c-.78-.36-19-9.1-19-22.81V7.2A2,2,0,0,1,5.64,5.25l17.9-4.2a2,2,0,0,1,.92,0l17.9,4.2a2,2,0,0,1,1.54,2V24c0,13.71-18.27,22.45-19,22.81A2,2,0,0,1,24,47ZM8.1,8.79V24c0,9.69,12.49,17,15.9,18.76C27.41,41,39.9,33.69,39.9,24V8.79L24,5.05Zm15,17.8,8.36-8.85A2,2,0,1,0,28.55,15L21.64,22.3l-2.73-2.89A2,2,0,0,0,16,22.16l4.18,4.43a2,2,0,0,0,1.46.62A2,2,0,0,0,23.09,26.59Z" /></symbol><view id="svg-lk-private-view" viewBox="4616 4977 48 48" /><use xlink:href="#svg-lk-private" x="4616" y="4977" width="48" height="48" /><symbol id="svg-phonetube" viewBox="0 0 12.57 12.57" ><path d="M12.57,9.93a2.94,2.94,0,0,1-.09.63,3.18,3.18,0,0,1-.19.61,2.36,2.36,0,0,1-1.08.95,3.52,3.52,0,0,1-1.67.45,3.71,3.71,0,0,1-.47,0,4.33,4.33,0,0,1-.51-.11l-.42-.13-.5-.18L7.21,12a7.88,7.88,0,0,1-1.57-.75A13.61,13.61,0,0,1,3.29,9.29,13.65,13.65,0,0,1,1.36,6.93,7.5,7.5,0,0,1,.62,5.37c0-.06-.08-.2-.16-.44s-.16-.4-.19-.5L.14,4A3.94,3.94,0,0,1,0,3.5,3.71,3.71,0,0,1,0,3,3.39,3.39,0,0,1,.46,1.37,2.29,2.29,0,0,1,1.4.28,3.18,3.18,0,0,1,2,.09,2.94,2.94,0,0,1,2.64,0a.44.44,0,0,1,.19,0c.11,0,.26.26.47.68q.11.17.27.48c.11.21.22.39.31.56l.28.48.16.23a3.3,3.3,0,0,1,.19.31A.62.62,0,0,1,4.57,3a.72.72,0,0,1-.25.44A3.71,3.71,0,0,1,3.76,4a5.11,5.11,0,0,0-.55.48A.64.64,0,0,0,3,4.85a.58.58,0,0,0,0,.2.78.78,0,0,0,.08.18l.12.22a1,1,0,0,1,.1.17A9.41,9.41,0,0,0,4.86,7.71,9,9,0,0,0,7,9.27l.17.1.21.13.18.07a.64.64,0,0,0,.2,0,.67.67,0,0,0,.41-.26,5.11,5.11,0,0,0,.48-.55,4.37,4.37,0,0,1,.49-.56A.74.74,0,0,1,9.54,8a.62.62,0,0,1,.26.06,3.27,3.27,0,0,1,.32.19l.22.16.48.28.56.31.49.27c.41.21.64.36.67.47A.44.44,0,0,1,12.57,9.93Z" /></symbol><view id="svg-phonetube-view" viewBox="4664 5025 12.57 12.57" /><use xlink:href="#svg-phonetube" x="4664" y="5025" width="12.57" height="12.57" /><symbol id="svg-credit-card" viewBox="0 -76 512 512" ><path d="m452 0h-392c-33.085938 0-60 26.914062-60 60v240c0 33.085938 26.914062 60 60 60h392c33.085938 0 60-26.914062 60-60v-240c0-33.085938-26.914062-60-60-60zm-392 40h392c11.027344 0 20 8.972656 20 20v20h-432v-20c0-11.027344 8.972656-20 20-20zm392 280h-392c-11.027344 0-20-8.972656-20-20v-180h432v180c0 11.027344-8.972656 20-20 20zm-10-55c0 13.808594-11.191406 25-25 25s-25-11.191406-25-25 11.191406-25 25-25 25 11.191406 25 25zm-70 0c0 13.808594-11.191406 25-25 25s-25-11.191406-25-25 11.191406-25 25-25 25 11.191406 25 25zm0 0" /></symbol><view id="svg-credit-card-view" viewBox="4677 4962 512 512" /><use xlink:href="#svg-credit-card" x="4677" y="5038" width="512" height="512" /><symbol id="svg-phone" viewBox="0 0 24 24" ><path d="M18.27,21.91H18a18.2,18.2,0,0,1-7.88-2.76A17.94,17.94,0,0,1,1.87,6,2.72,2.72,0,0,1,4.34,3H7.17A2.7,2.7,0,0,1,9.88,5.32a10,10,0,0,0,.55,2.17,2.68,2.68,0,0,1-.62,2.85l-.53.52A12.8,12.8,0,0,0,13,14.55l.55-.54a2.74,2.74,0,0,1,2.86-.6,10.34,10.34,0,0,0,2.21.54A2.7,2.7,0,0,1,21,16.67v2.54a2.71,2.71,0,0,1-2.71,2.7ZM7.19,5H4.58A.76.76,0,0,0,4,5.26a.7.7,0,0,0-.16.5,15.85,15.85,0,0,0,2.49,6.9,15.86,15.86,0,0,0,4.86,4.79,16.46,16.46,0,0,0,7,2.46h0a.8.8,0,0,0,.57-.21.7.7,0,0,0,.2-.49V16.63a.7.7,0,0,0-.62-.7,12.64,12.64,0,0,1-2.63-.65.75.75,0,0,0-.77.16l-1.09,1.08a1,1,0,0,1-1.2.16,14.69,14.69,0,0,1-5.54-5.47A1,1,0,0,1,7.31,10l1.1-1.08a.68.68,0,0,0,.15-.72A11.76,11.76,0,0,1,7.9,5.59.71.71,0,0,0,7.19,5Zm10.22,5.9a1,1,0,0,1-1-.81,3.24,3.24,0,0,0-2.61-2.56,1,1,0,0,1,.38-2A5.27,5.27,0,0,1,18.4,9.7a1,1,0,0,1-.79,1.18Zm3.45,0a1,1,0,0,1-1-.89,6.66,6.66,0,0,0-6-5.85A1,1,0,0,1,13,3a1,1,0,0,1,1.1-.88,8.66,8.66,0,0,1,7.74,7.62,1,1,0,0,1-.88,1.1Z" /></symbol><view id="svg-phone-view" viewBox="5189 5550 24 24" /><use xlink:href="#svg-phone" x="5189" y="5550" width="24" height="24" /></svg>